<svg width="15" height="17" viewBox="0 0 15 17" fill="none" xmlns="http://www.w3.org/2000/svg">
<path d="M14.8917 16.2995L14.8914 16.2996L14.8928 16.3074C14.8975 16.334 14.8999 16.3616 14.9 16.3898C14.9 16.6657 14.6597 16.9 14.3495 16.9H14.3495H14.3495H14.3495H14.3494H14.3494H14.3494H14.3494H14.3494H14.3494H14.3494H14.3493H14.3493H14.3493H14.3493H14.3493H14.3493H14.3492H14.3492H14.3492H14.3492H14.3492H14.3492H14.3491H14.3491H14.3491H14.3491H14.3491H14.349H14.349H14.349H14.349H14.349H14.349H14.3489H14.3489H14.3489H14.3489H14.3489H14.3489H14.3488H14.3488H14.3488H14.3488H14.3488H14.3488H14.3487H14.3487H14.3487H14.3487H14.3487H14.3486H14.3486H14.3486H14.3486H14.3486H14.3486H14.3485H14.3485H14.3485H14.3485H14.3485H14.3484H14.3484H14.3484H14.3484H14.3484H14.3484H14.3483H14.3483H14.3483H14.3483H14.3483H14.3483H14.3482H14.3482H14.3482H14.3482H14.3482H14.3482H14.3481H14.3481H14.3481H14.3481H14.3481H14.3481H14.348H14.348H14.348H14.348H14.348H14.348H14.3479H14.3479H14.3479H14.3479H14.3479H14.3479H14.3478H14.3478H14.3478H14.3478H14.3478H0.650491C0.49384 16.9 0.345744 16.8382 0.242034 16.7318C0.138601 16.6257 0.0887317 16.4853 0.102148 16.3448L1.20928 4.7792L1.20928 4.77919C1.23398 4.52099 1.46718 4.31408 1.75763 4.31408H4.0334H4.1334V4.21408V3.25195C4.1334 1.51997 5.63745 0.1 7.49974 0.1C9.36212 0.1 10.8663 1.51998 10.8663 3.25195V4.21408V4.31408H10.9663H13.2405C13.531 4.31408 13.7642 4.52099 13.7889 4.77919L13.8884 4.76967L13.7889 4.7792L14.8917 16.2995ZM9.66544 4.31408H9.76544V4.21408V3.25195C9.76544 2.07058 8.74307 1.12036 7.49983 1.12036C6.25666 1.12036 5.23438 2.07059 5.23438 3.25195V4.21408V4.31408H5.33438H9.66544ZM1.2625 15.7702L1.25201 15.8797H1.36204H13.6362H13.7463L13.7358 15.7702L12.7455 5.42492L12.7368 5.33444H12.6459H10.9664H10.8664V5.43444V6.52561C10.8664 6.80145 10.6262 7.0358 10.3159 7.0358C10.0057 7.0358 9.76544 6.80145 9.76544 6.52561V5.43444V5.33444H9.66544H5.33438H5.23438V5.43444V6.52561C5.23438 6.80145 4.99411 7.0358 4.68389 7.0358C4.37367 7.0358 4.1334 6.80145 4.1334 6.52561V5.43444V5.33444H4.0334H2.35235H2.26147L2.25281 5.42492L1.2625 15.7702Z" fill="#737C92" stroke="#737C92" stroke-width="0.2"/>
</svg>
