<svg width="25" height="25" viewBox="0 0 25 25" fill="none" xmlns="http://www.w3.org/2000/svg">
<path d="M17.2857 6H11.7143C10.7714 6 10 6.77838 10 7.72973V20.2703C10 21.2216 10.7714 22 11.7143 22H17.2857C18.2286 22 19 21.2216 19 20.2703V7.72973C19 6.77838 18.2286 6 17.2857 6ZM12.7857 8.59459H11.7143C11.2409 8.59459 10.8571 8.20735 10.8571 7.72973C10.8571 7.25211 11.2409 6.86486 11.7143 6.86486H12.7857C13.2591 6.86486 13.6429 7.25211 13.6429 7.72973C13.6429 8.20735 13.2591 8.59459 12.7857 8.59459Z" fill="#30C884"/>
<path d="M9.13043 19.3111V7.06667C9.13043 6.01723 10.0063 5.16667 11.087 5.16667H15V3.68889C15 2.76 14.2174 2 13.4783 2H6.73891C5.565 2 5 2.76 5 3.68889V19.3111C5 20.24 5.78261 21 6.73913 21H9.45652C9.02174 20.6833 9.13043 20.0475 9.13043 19.3111ZM8.04348 4.53333H6.73913C6.25891 4.53333 5.86957 4.15523 5.86957 3.68889C5.86957 3.22254 6.25891 2.84444 6.73913 2.84444H8.04348C8.5237 2.84444 8.91304 3.22254 8.91304 3.68889C8.91304 4.15523 8.5237 4.53333 8.04348 4.53333Z" fill="#30C884"/>
</svg>
