<svg width="26" height="25" viewBox="0 0 26 25" fill="none" xmlns="http://www.w3.org/2000/svg">
<path fill-rule="evenodd" clip-rule="evenodd" d="M20.8174 1H14.0083C12.8998 1 12.0009 1.93137 12.0009 3.07995V15.3688C12.0009 16.5178 12.8998 17.4487 14.0083 17.4487H20.8174C21.9263 17.4487 22.8248 16.5174 22.8248 15.3688V3.07995C22.8252 1.93137 21.9263 1 20.8174 1ZM15.7294 2.22757H19.0966C19.2598 2.22757 19.392 2.36456 19.392 2.53363C19.392 2.70271 19.2598 2.8397 19.0966 2.8397H15.7294C15.5663 2.8397 15.434 2.70271 15.434 2.53363C15.434 2.36415 15.5663 2.22757 15.7294 2.22757ZM15.7294 15.99H14.4661C14.3029 15.99 14.1707 15.853 14.1707 15.6839C14.1707 15.5148 14.3029 15.3778 14.4661 15.3778H15.7294C15.8926 15.3778 16.0248 15.5148 16.0248 15.6839C16.0244 15.853 15.8922 15.99 15.7294 15.99ZM17.4128 16.4939C16.9813 16.4939 16.6311 16.1311 16.6311 15.6839C16.6311 15.2367 16.9813 14.8739 17.4128 14.8739C17.8448 14.8739 18.1946 15.2367 18.1946 15.6839C18.1946 16.1315 17.8448 16.4939 17.4128 16.4939ZM20.36 15.99H19.0966C18.9335 15.99 18.8013 15.853 18.8013 15.6839C18.8013 15.5148 18.9335 15.3778 19.0966 15.3778H20.36C20.5232 15.3778 20.6554 15.5148 20.6554 15.6839C20.6554 15.853 20.5232 15.99 20.36 15.99ZM20.9615 13.8973H13.8646V3.8661H20.9615V13.8973Z" fill="#BFC8DC"/>
<path d="M5.27807 15.623L3.27187 13.8907C2.99951 13.6558 2.84229 13.3078 2.84229 12.9408V11.5409C2.84229 10.8576 3.37669 10.3039 4.03616 10.3039H4.19807V6.93543C4.19807 6.55367 4.49942 6.24143 4.86786 6.24143C5.23631 6.24143 5.53765 6.55367 5.53765 6.93543V10.3039H7.98658V6.93543C7.98658 6.55367 8.28792 6.24143 8.65637 6.24143C9.02481 6.24143 9.32616 6.55367 9.32616 6.93543V10.3039H9.76649C10.426 10.3039 10.9604 10.8576 10.9604 11.5409V12.9408C10.9604 13.3078 10.8031 13.6562 10.5308 13.8911L8.52458 15.6234C8.25222 15.8583 8.095 16.2068 8.095 16.5737V17.4068C8.095 17.899 7.81768 18.324 7.41607 18.5232V18.6434C7.32515 20.4181 9.05422 22.9345 11.6754 22.9345C15.2114 22.9345 16.4894 18.8281 16.5077 18.6158H17.6654C17.4859 20.7521 15.2586 23.9996 11.6754 24C8.3205 24 6.38776 21.3137 6.38776 18.6434V18.524C5.9853 18.3251 5.70726 17.8997 5.70726 17.4068V16.5737C5.70726 16.2064 5.55003 15.8583 5.27807 15.623Z" fill="#BFC8DC"/>
</svg>
