<svg width="26" height="25" viewBox="0 0 26 25" fill="none" xmlns="http://www.w3.org/2000/svg">
<path d="M6.02813 2C5.62874 2 5.30591 2.32 5.30591 2.71429V21.2857C5.30591 21.68 5.62874 22 6.02813 22H13.2504C14.2477 22 15.0552 21.2007 15.0559 20.2143C15.0559 19.6486 14.7929 19.123 14.3337 18.7857C14.2707 18.7395 14.2205 18.6582 14.1983 18.5848C14.141 18.3954 14.2559 18.2171 14.4465 18.1607L18.3059 17V2.71429C18.3059 2.32 17.9831 2 17.5837 2H6.02813ZM9.63924 3.78571C9.63924 3.58847 9.79914 3.42857 9.99638 3.42857H13.6154C13.8127 3.42857 13.9726 3.58847 13.9726 3.78571C13.9726 3.98296 13.8127 4.14286 13.6154 4.14286H9.99638C9.79914 4.14286 9.63924 3.98296 9.63924 3.78571ZM11.8059 18.0714C12.604 18.0714 13.2504 18.7114 13.2504 19.5C13.2504 20.2886 12.604 20.9286 11.8059 20.9286C11.0086 20.9286 10.3615 20.2886 10.3615 19.5C10.3615 18.7114 11.0086 18.0714 11.8059 18.0714Z" fill="#BFC8DC"/>
<path d="M15.7875 20C15.7514 19.5108 15.5842 19.0442 15.3059 18.6598L17.3059 18L15.7875 20Z" fill="#BFC8DC"/>
</svg>
