<svg width="22" height="25" viewBox="0 0 22 25" fill="none" xmlns="http://www.w3.org/2000/svg">
<g clip-path="url(#clip0)">
<path d="M3.34405 20.8871C3.6704 18.6728 4.27691 16.9289 5.01936 15.5644C5.58748 14.5199 6.23447 13.6984 6.88664 13.0591C7.71055 12.2503 8.54016 11.7336 9.22865 11.4057L8.89919 8.38998L10.368 8.28842L9.61415 1.58812C9.53061 0.84405 10.066 0.21417 10.8043 0.189438L16.3911 0.000526216C16.4062 0 16.4212 0 16.4368 0C17.1569 0 17.8107 0.578837 17.9009 1.30659L18.674 7.52015L20.6912 8.05057L21.1338 10.9853L19.3827 13.2233L19.8154 16.7026C19.9078 17.4456 19.391 18.1755 18.6673 18.3239L12.9751 19.4921C12.8875 19.51 12.8003 19.5189 12.7157 19.5189C12.0999 19.5189 11.5805 19.0632 11.5068 18.4091L11.0715 14.5383L9.58509 14.6693L9.45019 13.4322C8.15311 14.6967 6.5328 17.0425 6.38804 20.9408C8.06387 21.2533 9.23488 22.0195 9.20842 22.9114C9.17366 24.0744 7.11856 25.0089 4.6183 25C2.11753 24.991 0.118467 24.0417 0.153229 22.8788C0.180208 21.9427 1.51828 21.1544 3.34405 20.8871ZM17.0516 2.63739L10.782 2.95681L11.4835 9.19193L12.2337 9.42452L12.668 12.9875L11.9541 13.3769L12.3048 16.4969L18.6413 15.4218L17.0516 2.63739ZM16.5707 17.3404C16.4871 16.8273 16.1317 16.4606 15.7763 16.52C15.4214 16.5795 15.2015 17.0436 15.285 17.5561C15.3685 18.0687 15.7239 18.436 16.0793 18.3765C16.4342 18.317 16.6542 17.8529 16.5707 17.3404Z" fill="#BFC8DC"/>
</g>
<defs>
<clipPath id="clip0">
<rect width="20.9816" height="25" fill="white" transform="matrix(-1 0 0 1 21.1338 0)"/>
</clipPath>
</defs>
</svg>
