<svg width="26" height="25" viewBox="0 0 26 25" fill="none" xmlns="http://www.w3.org/2000/svg">
<path d="M7.6897 19.5C7.6897 20.33 8.3597 21 9.1897 21C10.0197 21 10.6897 20.33 10.6897 19.5V19H7.6897V19.5Z" fill="#BFC8DC"/>
<path d="M6.6897 4C5.6197 4 4.6097 4.39846 3.8597 5.12C3.7497 5.21692 3.6897 5.36769 3.6897 5.51846V10.02C3.6897 10.1708 3.7497 10.3215 3.8597 10.4185C4.8497 11.3662 6.3497 11.7538 7.6897 11.42V18H10.6897V7.76923C10.6897 5.69077 8.8997 4 6.6897 4ZM5.2097 8.30769C4.9337 8.30769 4.7047 8.06646 4.7047 7.76923C4.7047 7.472 4.9237 7.23077 5.1997 7.23077H5.2097C5.4857 7.23077 5.7097 7.472 5.7097 7.76923C5.7097 8.06646 5.4857 8.30769 5.2097 8.30769ZM8.1897 8.30769C7.9137 8.30769 7.6897 8.06646 7.6897 7.76923C7.6897 7.472 7.4657 7.23077 7.1897 7.23077C6.9137 7.23077 6.6897 6.98954 6.6897 6.69231C6.6897 6.39508 6.9137 6.15385 7.1897 6.15385C8.0167 6.15385 8.6897 6.87862 8.6897 7.76923C8.6897 8.06646 8.4657 8.30769 8.1897 8.30769Z" fill="#BFC8DC"/>
<path d="M13.6897 19.5C13.6897 20.33 14.3597 21 15.1897 21C16.0197 21 16.6897 20.33 16.6897 19.5V19H13.6897V19.5Z" fill="#BFC8DC"/>
<path d="M20.5197 5.12C19.7697 4.39846 18.7597 4 17.6897 4C15.4797 4 13.6897 5.69077 13.6897 7.76923V18H16.6897V11.42C18.0297 11.7538 19.5297 11.3662 20.5197 10.4185C20.6297 10.3215 20.6897 10.1708 20.6897 10.02V5.51846C20.6897 5.36769 20.6297 5.21692 20.5197 5.12ZM17.1897 7.23077C16.9137 7.23077 16.6897 7.472 16.6897 7.76923C16.6897 8.06646 16.4657 8.30769 16.1897 8.30769C15.9137 8.30769 15.6897 8.06646 15.6897 7.76923C15.6897 6.87862 16.3627 6.15385 17.1897 6.15385C17.4657 6.15385 17.6897 6.39508 17.6897 6.69231C17.6897 6.98954 17.4657 7.23077 17.1897 7.23077ZM19.1697 8.30769C18.8937 8.30769 18.6697 8.06646 18.6697 7.76923C18.6697 7.472 18.8937 7.23077 19.1697 7.23077H19.1797C19.4557 7.23077 19.6747 7.472 19.6747 7.76923C19.6747 8.06646 19.4457 8.30769 19.1697 8.30769Z" fill="#BFC8DC"/>
</svg>
