<svg width="26" height="25" viewBox="0 0 26 25" fill="none" xmlns="http://www.w3.org/2000/svg">
<path d="M13.864 3.75718H13.4095C13.4095 3.71582 13.4098 3.67527 13.4101 3.63554C13.4133 3.16875 13.4157 2.81329 12.955 2.5623V2.43929C12.955 2.32279 12.9071 2.21105 12.8219 2.12867C12.7366 2.04628 12.621 2 12.5005 2C12.38 2 12.2644 2.04628 12.1791 2.12867C12.0939 2.21105 12.046 2.32279 12.046 2.43929V2.5623C11.5835 2.81599 11.587 3.20996 11.5908 3.6393C11.5911 3.67833 11.5915 3.71765 11.5915 3.75718H11.137L10.7961 5.07506H14.2049L13.864 3.75718Z" fill="#BFC8DC"/>
<path d="M13.8647 15.4106C13.8647 16.1384 13.2542 16.7285 12.5011 16.7285C11.7481 16.7285 11.1376 16.1384 11.1376 15.4106C11.1376 14.6827 11.7481 14.0927 12.5011 14.0927C13.2542 14.0927 13.8647 14.6827 13.8647 15.4106Z" fill="#BFC8DC"/>
<path fill-rule="evenodd" clip-rule="evenodd" d="M16.4052 15.0196C15.3689 13.8511 15.228 12.7309 15.228 11.3954C15.6173 11.2983 15.9623 11.0792 16.209 10.7724C16.4557 10.4655 16.5903 10.0883 16.5916 9.69976V8.82117C16.5903 8.43259 16.4557 8.05539 16.209 7.74857C15.9623 7.44176 15.6173 7.22264 15.228 7.1255V6.6247C15.228 6.39168 15.1323 6.16821 14.9618 6.00344C14.7913 5.83868 14.5601 5.74611 14.319 5.74611H10.683C10.4419 5.74611 10.2107 5.83868 10.0402 6.00344C9.86976 6.16821 9.77399 6.39168 9.77399 6.6247V7.1255C9.38472 7.22264 9.03974 7.44176 8.79303 7.74857C8.54632 8.05539 8.41179 8.43259 8.41048 8.82117V9.69976C8.41179 10.0883 8.54632 10.4655 8.79303 10.7724C9.03974 11.0792 9.38472 11.2983 9.77399 11.3954C9.77399 12.6079 9.68764 13.7852 8.67864 14.9098C7.91745 15.7652 7.49968 16.8566 7.50147 17.9848V18.9249C7.50147 19.391 7.69301 19.8379 8.03396 20.1675C8.3749 20.497 8.83732 20.6821 9.31949 20.6821H9.77399V22H15.228V20.6821H15.6826C16.1647 20.6821 16.6271 20.497 16.9681 20.1675C17.309 19.8379 17.5006 19.391 17.5006 18.9249C17.5006 18.8573 17.5008 18.7892 17.501 18.7208C17.5048 17.5453 17.509 16.2608 16.4052 15.0196ZM9.77399 10.4597C9.29329 10.1975 9.30195 9.78176 9.3149 9.16088C9.31713 9.05383 9.31949 8.94068 9.31949 8.82117C9.31965 8.6671 9.36173 8.51578 9.44151 8.38239C9.52128 8.249 9.63594 8.13823 9.77399 8.06119V10.4597ZM15.6875 9.1543C15.7013 9.75549 15.7112 10.187 15.228 10.4597V8.06119C15.3661 8.13823 15.4808 8.249 15.5605 8.38239C15.6403 8.51578 15.6824 8.6671 15.6826 8.82117C15.6826 8.93749 15.6851 9.04854 15.6875 9.1543ZM12.501 17.6071C12.0516 17.6071 11.6122 17.4782 11.2385 17.2369C10.8648 16.9955 10.5735 16.6525 10.4015 16.2511C10.2295 15.8498 10.1845 15.4081 10.2722 14.9821C10.3599 14.556 10.5763 14.1646 10.8941 13.8574C11.2119 13.5503 11.6168 13.3411 12.0577 13.2563C12.4985 13.1716 12.9554 13.2151 13.3707 13.3813C13.7859 13.5476 14.1408 13.8291 14.3906 14.1903C14.6403 14.5515 14.7735 14.9762 14.7735 15.4106C14.7735 15.9931 14.5341 16.5518 14.1079 16.9637C13.6818 17.3756 13.1037 17.6071 12.501 17.6071Z" fill="#BFC8DC"/>
</svg>
